<svg xmlns="http://www.w3.org/2000/svg" width="17" height="17" viewBox="0 0 17 17">
    <path fill="#F5F5F5" d="M8.5 0c.69 0 1.32.393 1.625 1.013l6.71 13.669c.245.498.216 1.088-.078 1.56s-.81.758-1.366.758H1.61c-.556 0-1.073-.286-1.367-.758-.294-.472-.323-1.062-.078-1.56l6.71-13.67C7.179.392 7.81 0 8.5 0zm0 1.063c-.285 0-.546.162-.671.418l-6.71 13.67c-.084.169-.074.37.026.53.1.16.275.257.464.257h13.782c.189 0 .364-.098.464-.258.1-.16.11-.36.026-.53L9.171 1.48c-.125-.255-.386-.417-.671-.417zm0 11.687l.087.005c.4.043.71.381.71.792 0 .44-.357.797-.797.797-.44 0-.797-.357-.797-.797 0-.44.357-.797.797-.797zm0-7.438c.293 0 .531.238.531.532v5.312c0 .294-.238.531-.531.531-.293 0-.531-.237-.531-.53V5.843c0-.294.238-.532.531-.532z"/>
</svg>
