<svg xmlns="http://www.w3.org/2000/svg" width="173" height="35" viewBox="0 0 173 35">
    <defs>
        <linearGradient id="prefix__a" x1="56.088%" x2="100%" y1="81.668%" y2="81.668%">
            <stop offset="0%" stop-color="#ED1C24"/>
            <stop offset="100%" stop-color="#FFF" stop-opacity="0"/>
        </linearGradient>
        <linearGradient id="prefix__b" x1="10.322%" x2="88.651%" y1="49.953%" y2="49.953%">
            <stop offset="0%" stop-color="#ED1C24"/>
            <stop offset="100%" stop-color="#FFCB05"/>
        </linearGradient>
        <linearGradient id="prefix__c" x1="50.002%" x2="50.002%" y1="-.786%" y2="35.658%">
            <stop offset="0%" stop-color="#E39717"/>
            <stop offset="12.36%" stop-color="#E8A116"/>
            <stop offset="43.44%" stop-color="#F4B710"/>
            <stop offset="73.21%" stop-color="#FCC509"/>
            <stop offset="100%" stop-color="#FFCB05"/>
        </linearGradient>
        <linearGradient id="prefix__d" x1="35.32%" x2="47.959%" y1="24.367%" y2="60.204%">
            <stop offset="0%" stop-color="#E39717"/>
            <stop offset="10.13%" stop-color="#E8A116"/>
            <stop offset="35.61%" stop-color="#F4B710"/>
            <stop offset="60%" stop-color="#FCC509"/>
            <stop offset="81.96%" stop-color="#FFCB05"/>
            <stop offset="100%" stop-color="#FFCB05"/>
        </linearGradient>
    </defs>
    <g fill="none">
        <g fill="#002C76">
            <path d="M39.02 11.39c-.966.242-1.69.363-2.415.363-1.813 0-2.175-1.575-2.175-2.908 0-2.06.725-3.15 2.175-3.15.724 0 1.208.121 1.208.121l1.328.485V4.604l-.12-.12c-.484-.243-1.57-.607-2.9-.607-2.657 0-4.349 1.939-4.349 4.847 0 2.787 1.692 4.604 4.108 4.604 1.087 0 2.053-.242 3.503-.848l.242-.121-.363-1.333-.241.364zM8.456 6.664c1.209-.485 1.692-1.333 1.692-2.787 0-1.333-.604-2.423-1.692-2.787C7.732.727 7.006.727 4.711.727H0V2.06s1.087.121 1.45.242V13.45h3.745c1.812 0 2.657-.12 3.382-.484 1.208-.606 1.933-1.697 1.933-3.15.121-1.697-.604-2.787-2.054-3.15zM4.107 2.302h.725c.967 0 1.692 0 2.175.364.362.242.483.727.483 1.211 0 1.212-.362 1.818-1.812 1.939l-1.087.121-.484.848V2.302zm3.02 8.966c-.603.485-1.45.485-2.536.485h-.484v-4.12h.967c.966 0 1.691 0 2.174.364.363.363.604.848.604 1.575s-.241 1.333-.724 1.696zM82.511 6.664c1.208-.485 1.691-1.333 1.691-2.787 0-1.333-.604-2.423-1.69-2.787-.726-.363-1.45-.363-3.746-.363h-4.711V2.06s1.087.121 1.45.242V13.45h3.744c1.812 0 2.658-.12 3.383-.484 1.208-.606 1.933-1.697 1.933-3.15.12-1.697-.604-2.787-2.054-3.15zm-4.349-4.362h.725c.966 0 1.691 0 2.174.364.363.242.484.727.484 1.211 0 1.212-.363 1.818-1.812 1.939l-1.088.121-.483.848V2.302zm3.02 8.966c-.604.485-1.45.485-2.537.485h-.483v-4.12h.967c.966 0 1.69 0 2.174.364.363.363.604.848.604 1.575.12.727-.241 1.333-.725 1.696zM28.027 3.998c-.725 0-1.691.243-2.9.727v-.727l-3.744.485v1.333h1.45v7.512h2.536V6.301c.363-.122 1.088-.364 1.933-.364.363 0 .725.121.846.242.242.243.242.727.242 1.333v5.816h2.537V7.391c0-1.333-.121-1.817-.484-2.423-.604-.606-1.329-.97-2.416-.97zM44.578 3.998c-2.779 0-4.59 1.818-4.59 4.726s1.69 4.725 4.59 4.725c2.778 0 4.47-1.817 4.47-4.725 0-2.908-1.692-4.726-4.47-4.726zm0 7.876c-.846 0-1.933-.363-1.933-3.15s.966-3.15 1.933-3.15c.845 0 1.933.363 1.933 3.029-.121 2.908-1.088 3.271-1.933 3.271zM110.176 3.998c-2.779 0-4.59 1.818-4.59 4.726s1.69 4.725 4.59 4.725c2.779 0 4.59-1.817 4.59-4.725 0-2.908-1.69-4.726-4.59-4.726zm0 7.876c-.846 0-1.933-.363-1.933-3.15s.967-3.15 1.933-3.15c.846 0 1.933.363 1.933 3.029 0 2.908-.967 3.271-1.933 3.271zM120.807 11.632l-1.812.242c-.363 0-.483-.12-.604-.242 0-.121-.121-.121-.121-.848V5.816h2.537V4.241h-2.537V1.817h-.362l-2.175.243v8.603c0 .969.12 1.575.483 2.06.363.484.967.726 1.812.726.846 0 1.692-.242 2.658-.605l.242-.122-.121-1.09zM90.484 3.998c-2.778 0-4.59 1.818-4.59 4.726s1.691 4.725 4.59 4.725c2.779 0 4.47-1.817 4.47-4.725 0-2.908-1.691-4.726-4.47-4.726zm0 7.876c-.845 0-1.932-.363-1.932-3.15s.966-3.15 1.932-3.15c.846 0 1.933.363 1.933 3.029 0 2.908-.966 3.271-1.933 3.271zM102.082 4.725c-.604-.363-1.329-.484-1.933-.484-2.537 0-4.35 2.06-4.35 4.846 0 2.666 1.45 4.362 3.625 4.362.604 0 1.208-.12 2.537-.727v.727c0 1.576-.604 2.06-2.537 2.06-.845 0-2.054-.12-3.02-.363v1.575c1.933.363 2.658.485 3.624.485 1.208 0 2.296-.243 3.02-.606 1.088-.606 1.45-1.454 1.45-3.03V4.363h-2.537v.363h.12zm0 6.786c-.483.121-.725.121-1.208.121-1.57 0-2.295-.97-2.295-2.787 0-1.939.966-2.908 2.536-2.908.242 0 .484 0 .967.121v5.453zM20.054 4.483h-2.416v.364c-.604-.364-1.208-.485-1.933-.485-2.416 0-4.228 1.939-4.228 4.847 0 2.665 1.329 4.362 3.624 4.362.604 0 1.329-.243 2.416-.97v.848l3.503-.363v-1.454h-.966V4.483zm-2.416 7.149c-.483.121-.725.121-1.208.121-1.57 0-2.416-.97-2.416-2.787 0-1.938.966-3.029 2.657-3.029.363 0 .484 0 .967.121v5.574zM130.11 4.483h-2.417v.364c-.604-.364-1.208-.485-1.933-.485-2.416 0-4.228 1.939-4.228 4.847 0 2.665 1.329 4.362 3.624 4.362.604 0 1.329-.243 2.416-.97v.848l3.504-.363v-1.454h-.967V4.483zm-2.538 7.149c-.483.121-.725.121-1.208.121-1.57 0-2.416-.97-2.416-2.787 0-1.938.966-3.029 2.658-3.029.362 0 .483 0 .966.121v5.574zM128.901 2.181L128.297.242 128.055.363 124.069 1.939 124.431 3.029zM61.128 0h-.362l-3.262.363v1.091h1.208v2.908c-.966-.364-2.416-.606-3.624-.242-1.691.605-2.779 2.18-2.779 4.483 0 2.06.967 3.756 2.658 4.362 1.208.363 2.9 0 3.866-.485v.727l3.383-.485v-1.09h-1.088c-.12 0 0-11.632 0-11.632zm-2.537 11.51c-1.087.364-2.416.485-3.14-.484-.484-.606-.605-1.454-.605-2.302v-.242c0-.97.242-1.576.725-2.181.725-.849 2.054-.727 3.02-.243.121 0 0 5.21 0 5.453zM67.169 3.998c-.604 0-1.088 0-1.57.243-1.813.606-2.9 2.18-2.9 4.604 0 2.181 1.087 3.877 2.9 4.483 1.57.485 3.865 0 5.436-.848h.12l-.362-1.333-.846.243c-1.208.363-2.778.969-3.745-.243-.483-.606-.604-1.575-.604-2.302l4.832.121h.725V8.24C71.035 3.877 67.29 4 67.17 4zm-1.812 3.635c0-.12.12-1.938 1.69-1.938 1.692 0 1.692 1.817 1.692 1.938h-3.382z" transform="translate(0 8.75)"/>
        </g>
        <g>
            <path fill="url(#prefix__a)" d="M17.11.005C7.932.17.345 6.784.01 15.87c-.33 9.092 6.542 16.743 15.348 17.084 4.481.175 8.602-1.575 11.617-4.538 2.9-2.855 2.78-7.879.475-5.602-2.535 2.504-6.08 4.001-9.946 3.857-7.372-.274-13.123-6.418-12.848-13.723C4.912 6.17 11.423.805 17.25.48L17.4 0c-.095.005-.19.005-.29.005z" transform="translate(138.4)"/>
            <path fill="#FFCB05" d="M18.396.48c7.396.465 13.485 6.978-8.042 13.49 5.484 1.116 9.535 3.775 9.535 3.775C38.319 8.057 27.835-.03 17.407 0l-.15.48c.384-.025.764-.025 1.139 0z" transform="translate(138.4)"/>
            <path fill="url(#prefix__b)" d="M9.375 3.905C11.7 1.901 14.583.634 17.323.478c.385-.021.766-.021 1.142.005C22.1.711 25.42 2.399 25.32 4.84l1.818-2.218C24.709.956 21.088-.01 17.473 0h-.29c-3.406.062-6.59 1.013-9.265 2.654l1.457 1.251z" transform="translate(138.4)"/>
            <path fill="url(#prefix__c)" d="M26.327 25.741c-.005-.087-.305-2.239-.305-2.239-.746-5.112.295-10.065 7.884-10.472-11.008-5.453-18.326-.232-23.687.99 4.88.625 15.167 6.31 16.108 11.721z" transform="translate(138.4)"/>
            <path fill="url(#prefix__d)" d="M29.955 14.519c-4.691 1.996-4.21 7.522-3.76 10.764.09.264.56 2.28-.526 4.384-1.347 2.368-3.53 4.157-7.735 5.315 10.779.517 23.115-10.175 12.02-20.463z" transform="translate(138.4)"/>
        </g>
    </g>
</svg>
